<svg width="19" height="24" viewBox="0 0 19 24" fill="none" xmlns="http://www.w3.org/2000/svg">
<path fill-rule="evenodd" clip-rule="evenodd" d="M7.02455 2.35669C7.02455 1.05513 8.07968 0 9.38124 0C10.6828 0 11.7379 1.05513 11.7379 2.35669C11.7379 2.80195 11.6145 3.21836 11.3999 3.57356C13.6169 4.34621 15.3067 6.29615 15.6675 8.73158L16.5303 14.555L18.5863 17.9817C18.956 18.5979 18.7369 19.4363 18.0295 19.742C17.1234 20.1336 15.0743 20.9279 12.5035 21.3355C12.2654 22.8453 10.9583 23.9999 9.38155 23.9999C7.80476 23.9999 6.49766 22.8453 6.2596 21.3354C3.68903 20.9278 1.64013 20.1336 0.734121 19.742C0.0267327 19.4363 -0.192367 18.5979 0.177355 17.9817L2.22601 14.5672L2.84848 8.96505C3.13755 6.36342 4.94449 4.26516 7.32741 3.5133C7.13458 3.17162 7.02455 2.77701 7.02455 2.35669ZM9.38124 1.5C8.9081 1.5 8.52455 1.88356 8.52455 2.35669C8.52455 2.82983 8.9081 3.21339 9.38124 3.21339C9.85438 3.21339 10.2379 2.82983 10.2379 2.35669C10.2379 1.88356 9.85438 1.5 9.38124 1.5ZM4.3393 9.1307C4.61864 6.61667 6.74364 4.71471 9.27314 4.71471C11.7338 4.71471 13.8231 6.5173 14.1837 8.9514L14.9795 14.3231C14.6809 14.4262 14.2674 14.5575 13.7626 14.6892C12.6508 14.9793 11.1092 15.2676 9.38168 15.2676C7.65419 15.2676 6.11254 14.9793 5.00076 14.6892C4.48418 14.5545 4.06329 14.4201 3.76317 14.3159L4.3393 9.1307ZM3.27507 15.7343C3.60766 15.8496 4.06512 15.9953 4.62213 16.1407C5.82058 16.4533 7.49316 16.7676 9.38168 16.7676C11.2702 16.7676 12.9428 16.4533 14.1412 16.1407C14.6984 15.9953 15.1559 15.8496 15.4885 15.7342L17.1411 18.4886C15.7853 19.0451 12.7834 20.0894 9.38181 20.0894C5.98024 20.0894 2.97827 19.0451 1.62248 18.4886L3.27507 15.7343ZM10.893 21.5282C10.4007 21.5675 9.89583 21.5894 9.38181 21.5894C8.86759 21.5894 8.3625 21.5675 7.87007 21.5282C8.13181 22.1015 8.71014 22.4999 9.38155 22.4999C10.0529 22.4999 10.6313 22.1015 10.893 21.5282Z" fill="#14142B"/>
</svg>
