<svg width="19" height="22" viewBox="0 0 19 22" fill="none" xmlns="http://www.w3.org/2000/svg">
<path fill-rule="evenodd" clip-rule="evenodd" d="M3 5.80078C3 8.99939 5.60223 11.6016 8.80078 11.6016C11.9993 11.6016 14.6016 8.99939 14.6016 5.80078C14.6016 2.60217 11.9993 0 8.80078 0C5.60223 0 3 2.60217 3 5.80078ZM4.71875 5.80078C4.71875 3.54993 6.54994 1.71875 8.80078 1.71875C11.0516 1.71875 12.8828 3.54993 12.8828 5.80078C12.8828 8.05164 11.0516 9.88281 8.80078 9.88281C6.54994 9.88281 4.71875 8.05164 4.71875 5.80078ZM17.0082 21.1406C17.0082 21.6152 17.4384 22 17.9691 22C18.4998 22 18.93 21.6152 18.93 21.1406C18.93 16.8285 15.0073 13.3203 10.1857 13.3203H8.74431C3.92268 13.3203 0 16.8285 0 21.1406C0 21.6152 0.430206 22 0.960907 22C1.49162 22 1.92183 21.6152 1.92183 21.1406C1.92183 17.7762 4.98239 15.0391 8.74431 15.0391H10.1857C13.9476 15.0391 17.0082 17.7762 17.0082 21.1406Z" fill="black"/>
</svg>
